<svg width="21" height="28" viewBox="0 0 21 28" fill="none" xmlns="http://www.w3.org/2000/svg">
<path d="M10.5084 8.51022e-10C7.83857 0.00223654 5.27814 1.06402 3.38631 2.95345C1.49447 4.84288 0.424963 7.40641 0.411377 10.0841C0.411377 14.0989 2.65706 17.4602 4.30274 19.9103L4.60274 20.3574C6.24009 22.7375 7.9966 25.033 9.86551 27.2349L10.5169 28L11.1683 27.2349C13.037 25.0328 14.7935 22.7374 16.4311 20.3574L16.7311 19.9018C18.3682 17.4516 20.6139 14.0989 20.6139 10.0841C20.6003 7.40492 19.5296 4.84009 17.6359 2.95042C15.7423 1.06075 13.1796 -3.46936e-05 10.5084 8.51022e-10Z" fill="#5E00A8"/>
<path fill-rule="evenodd" clip-rule="evenodd" d="M14.4982 4.93191L12.7526 5.45646L13.9152 8.49677C14.6157 8.32517 15.3554 8.42699 15.9835 8.78151C16.6116 9.13604 17.081 9.71661 17.2962 10.405C17.5113 11.0935 17.456 11.838 17.1415 12.4871C16.827 13.1362 16.277 13.641 15.6034 13.8989C14.9298 14.1567 14.1832 14.1481 13.5157 13.8749C12.8482 13.6017 12.3099 13.0844 12.0104 12.4282C11.7109 11.7721 11.6727 11.0265 11.9035 10.3432C12.1344 9.65985 12.617 9.0902 13.2531 8.75019L12.669 7.22259L10.6551 11.4056C10.6261 11.4657 10.5807 11.5163 10.5241 11.5518C10.4676 11.5872 10.4022 11.6059 10.3354 11.6058H8.89574C8.80476 12.3208 8.44495 12.9743 7.88943 13.4336C7.33392 13.8928 6.62438 14.1233 5.90504 14.0781C5.18571 14.033 4.51054 13.7156 4.01678 13.1906C3.52302 12.6655 3.24772 11.9722 3.24683 11.2514C3.24629 10.5298 3.52092 9.83508 4.01476 9.30889C4.50861 8.7827 5.1845 8.4646 5.90471 8.41941C6.62493 8.37422 7.33528 8.60534 7.89102 9.06568C8.44676 9.52602 8.80607 10.1809 8.89574 10.897H9.78181L8.05219 6.05403C8.03856 6.01581 8.03161 5.97553 8.03164 5.93495H7.49999C7.40599 5.93495 7.31584 5.8976 7.24937 5.83114C7.1829 5.76467 7.14556 5.67452 7.14556 5.58052C7.14556 5.48651 7.1829 5.39636 7.24937 5.3299C7.31584 5.26343 7.40599 5.22609 7.49999 5.22609H9.09493C9.18893 5.22609 9.27908 5.26343 9.34555 5.3299C9.41202 5.39636 9.44936 5.48651 9.44936 5.58052C9.44936 5.67452 9.41202 5.76467 9.34555 5.83114C9.27908 5.8976 9.18893 5.93495 9.09493 5.93495H8.76247L9.41533 7.76274L12.2958 6.24684L11.9538 5.35262C11.9364 5.30708 11.9285 5.25844 11.9308 5.20974C11.933 5.16104 11.9453 5.11333 11.9668 5.06958C11.9883 5.02584 12.0186 4.987 12.0559 4.95551C12.0931 4.92402 12.1364 4.90054 12.1831 4.88654L14.2944 4.25317L14.4982 4.93191V4.93191ZM9.65599 8.43722L10.3549 10.3937L11.8542 7.28036L9.65599 8.43722V8.43722ZM14.2576 11.3779L13.5086 9.419C13.0494 9.68994 12.7087 10.1235 12.5541 10.6338C12.3994 11.1441 12.4421 11.6939 12.6737 12.1742C12.9053 12.6545 13.3089 13.0303 13.8045 13.227C14.3 13.4238 14.8515 13.4272 15.3494 13.2366C15.8474 13.046 16.2556 12.6753 16.4932 12.1979C16.7307 11.7205 16.7802 11.1713 16.6319 10.6591C16.4836 10.147 16.1483 9.70918 15.6925 9.43255C15.2366 9.15593 14.6935 9.06064 14.1707 9.16558L14.9196 11.1249C14.9517 11.2123 14.948 11.3089 14.9094 11.3937C14.8708 11.4784 14.8004 11.5446 14.7134 11.5778C14.6264 11.6111 14.5298 11.6088 14.4445 11.5714C14.3592 11.534 14.292 11.4645 14.2576 11.3779V11.3779ZM8.17943 10.897H6.08227C5.98827 10.897 5.89812 10.9343 5.83165 11.0008C5.76518 11.0672 5.72784 11.1574 5.72784 11.2514C5.72784 11.3454 5.76518 11.4356 5.83165 11.502C5.89812 11.5685 5.98827 11.6058 6.08227 11.6058H8.17943C8.08915 12.1304 7.80547 12.6021 7.38442 12.9277C6.96336 13.2534 6.43552 13.4093 5.90509 13.3648C5.37466 13.3203 4.88019 13.0786 4.51929 12.6873C4.15839 12.296 3.95729 11.7837 3.95569 11.2514C3.9552 10.7178 4.1553 10.2036 4.51628 9.8107C4.87727 9.41779 5.37276 9.17494 5.90444 9.13033C6.43613 9.08571 6.96516 9.24259 7.38658 9.56984C7.80799 9.89709 8.091 10.3708 8.17943 10.897V10.897Z" fill="#FDFAFF"/>
</svg>
