<svg width="53" height="74" viewBox="0 0 53 74" fill="none" xmlns="http://www.w3.org/2000/svg">
<path d="M26.4888 2.2326e-09C19.4847 0.00586741 12.7676 2.79139 7.80453 7.74818C2.84142 12.705 0.0356414 19.4302 0 26.455C0 36.9874 5.89139 45.8058 10.2087 52.2335L10.9958 53.4062C15.2913 59.6504 19.8993 65.6723 24.8023 71.4489L26.5112 73.4561L28.2202 71.4489C33.1225 65.6718 37.7306 59.6499 42.0267 53.4062L42.8137 52.2109C47.1086 45.7832 53 36.9874 53 26.455C52.9643 19.4263 50.1555 12.6977 45.1875 7.74023C40.2195 2.7828 33.4967 -9.10163e-05 26.4888 2.2326e-09Z" fill="#FDFAFF"/>
<path fill-rule="evenodd" clip-rule="evenodd" d="M36.9559 12.9385L32.3765 14.3146L35.4263 22.2906C37.2642 21.8404 39.2045 22.1076 40.8524 23.0376C42.5002 23.9677 43.7317 25.4908 44.2961 27.2968C44.8605 29.1029 44.7154 31.0562 43.8903 32.759C43.0653 34.4619 41.6223 35.7863 39.8552 36.4627C38.088 37.1391 36.1295 37.1166 34.3783 36.3999C32.6271 35.6831 31.2149 34.3259 30.4292 32.6046C29.6434 30.8832 29.5432 28.9272 30.1489 27.1345C30.7546 25.3419 32.0207 23.8475 33.6894 22.9555L32.1571 18.9479L26.8738 29.9217C26.7976 30.0793 26.6785 30.2123 26.5301 30.3052C26.3818 30.3982 26.2102 30.4473 26.0351 30.447H22.2581C22.0195 32.3228 21.0755 34.0372 19.6182 35.242C18.1608 36.4467 16.2994 37.0513 14.4123 36.9329C12.5251 36.8145 10.7539 35.982 9.45853 34.6045C8.16319 33.2271 7.44094 31.4081 7.4386 29.5172C7.43719 27.6241 8.15767 25.8016 9.45323 24.4212C10.7488 23.0407 12.5219 22.2062 14.4114 22.0877C16.3008 21.9691 18.1644 22.5755 19.6223 23.7831C21.0803 24.9908 22.0229 26.7089 22.2581 28.5874H24.5827L20.0452 15.8823C20.0094 15.782 19.9912 15.6763 19.9912 15.5699H18.5965C18.3499 15.5699 18.1134 15.4719 17.939 15.2975C17.7646 15.1231 17.6667 14.8866 17.6667 14.64C17.6667 14.3934 17.7646 14.1569 17.939 13.9825C18.1134 13.8082 18.3499 13.7102 18.5965 13.7102H22.7807C23.0273 13.7102 23.2638 13.8082 23.4382 13.9825C23.6126 14.1569 23.7105 14.3934 23.7105 14.64C23.7105 14.8866 23.6126 15.1231 23.4382 15.2975C23.2638 15.4719 23.0273 15.5699 22.7807 15.5699H21.9085L23.6213 20.365L31.178 16.3881L30.2807 14.0422C30.235 13.9227 30.2145 13.7951 30.2204 13.6673C30.2262 13.5396 30.2584 13.4144 30.3149 13.2996C30.3713 13.1849 30.4509 13.083 30.5485 13.0004C30.6461 12.9177 30.7598 12.8561 30.8823 12.8194L36.4212 11.1578L36.9559 12.9385V12.9385ZM24.2526 22.1344L26.0862 27.267L30.0194 19.0995L24.2526 22.1344V22.1344ZM36.3245 29.8492L34.3598 24.71C33.155 25.4208 32.2612 26.5583 31.8555 27.8971C31.4498 29.2358 31.5619 30.6781 32.1694 31.9381C32.777 33.1982 33.8357 34.184 35.1358 34.7002C36.436 35.2164 37.8826 35.2254 39.189 34.7254C40.4954 34.2253 41.5663 33.2527 42.1895 32.0003C42.8126 30.7479 42.9426 29.3071 42.5535 27.9635C42.1645 26.6198 41.2849 25.4713 40.089 24.7456C38.8931 24.0199 37.4682 23.7699 36.0967 24.0452L38.0614 29.1853C38.1455 29.4147 38.1358 29.668 38.0346 29.8904C37.9333 30.1128 37.7486 30.2864 37.5203 30.3736C37.2921 30.4609 37.0387 30.4548 36.8149 30.3566C36.5911 30.2585 36.415 30.0762 36.3245 29.8492V29.8492ZM20.379 28.5874H14.8772C14.6306 28.5874 14.3941 28.6854 14.2197 28.8597C14.0453 29.0341 13.9474 29.2706 13.9474 29.5172C13.9474 29.7638 14.0453 30.0003 14.2197 30.1747C14.3941 30.3491 14.6306 30.447 14.8772 30.447H20.379C20.1421 31.8232 19.3979 33.0606 18.2933 33.915C17.1887 34.7693 15.8039 35.1785 14.4124 35.0617C13.0208 34.9449 11.7236 34.3107 10.7768 33.2842C9.83002 32.2578 9.30245 30.9137 9.29825 29.5172C9.29697 28.1175 9.82192 26.7684 10.7689 25.7376C11.716 24.7069 13.0158 24.0698 14.4107 23.9527C15.8055 23.8357 17.1934 24.2472 18.299 25.1058C19.4045 25.9643 20.147 27.207 20.379 28.5874V28.5874Z" fill="#5E00A8"/>
</svg>
