<svg width="56" height="56" viewBox="0 0 56 56" fill="none" xmlns="http://www.w3.org/2000/svg">
<circle cx="28" cy="28" r="28" fill="#E6C6FF"/>
<path d="M11.0002 26.23C10.996 26.4834 11.069 26.732 11.2094 26.943C11.3498 27.1539 11.551 27.3172 11.7864 27.4112L23.7871 32.2121L28.5882 44.2138C28.6809 44.4459 28.8411 44.6449 29.0481 44.7851C29.2551 44.9252 29.4994 45.0001 29.7494 45H29.7694C30.0225 44.996 30.2685 44.9152 30.4747 44.7684C30.681 44.6215 30.8378 44.4155 30.9243 44.1776L40.9239 16.6794C41.0057 16.4557 41.022 16.2133 40.9707 15.9807C40.9193 15.748 40.8026 15.5349 40.6342 15.3664C40.4659 15.1979 40.2528 15.0811 40.0203 15.0296C39.7877 14.9781 39.5452 14.9941 39.3215 15.0758L11.8226 25.0751C11.5846 25.1619 11.3785 25.3189 11.2317 25.5253C11.0848 25.7318 11.0041 25.9779 11.0002 26.2313V26.23Z" fill="#0F001B"/>
</svg>
