<svg width="32" height="41" viewBox="0 0 32 41" fill="none" xmlns="http://www.w3.org/2000/svg">
<path d="M15.82 1C11.8895 1 8.11997 2.56139 5.34068 5.34068C2.56139 8.11997 1 11.8895 1 15.82V15.82V16.9C1.6 25.02 8.34 31.55 15.82 40C23.63 31.18 30.64 24.5 30.64 15.82C30.64 11.8895 29.0786 8.11997 26.2993 5.34068C23.52 2.56139 19.7505 1 15.82 1ZM15.82 8.7C17.2306 8.7 18.6095 9.11842 19.7823 9.90232C20.955 10.6862 21.8689 11.8004 22.4082 13.1038C22.9476 14.4072 23.0882 15.8413 22.8123 17.2247C22.5363 18.608 21.8563 19.8785 20.8581 20.8752C19.86 21.872 18.5886 22.5502 17.2049 22.8242C15.8211 23.0982 14.3872 22.9556 13.0845 22.4144C11.7819 21.8732 10.669 20.9578 9.88676 19.7839C9.10451 18.6101 8.68802 17.2306 8.69 15.82C8.69265 13.9307 9.44501 12.1198 10.7819 10.7848C12.1187 9.44982 13.9307 8.7 15.82 8.7Z" fill="#5E00A8" stroke="#5E00A8" stroke-linecap="round" stroke-linejoin="round"/>
</svg>
